# xmcd
# 
# Track frame offsets:
#     183
#     12563
#     22575
#     33033
#     43215
#     53663
#     63465
#     76873
#     90708
#     100683
#     112735
#     124440
#     132885
#     143190
# 
# Disc length: 2060 seconds
# 
# Revision: 2
# Processed by: cddbd v1.4PL0 Copyright (c) Steve Scherf et al.
# Submitted via: BonkEnc v1.0beta1
# 
DISCID=ab080a0e
DTITLE=Various Artist - Country-Hits-Vol.2-CD-2
DYEAR=1900
DGENRE=Country
TTITLE0=Hank Williams sr. - Lovesick Blues-1949-Hank Williams sr.
TTITLE1=Dave Dudley - Travelin' Man-1964-Dave Dudley
TTITLE2=Dicky Lee - A Little Bitty Tear-1962-Dicky Lee
TTITLE3=Rusty Draper - Mule Skinner Blues-1962-Rusty Draper
TTITLE4=Connie Francis - O Lonesome Me-1962-Connie Francis
TTITLE5=Johnny Sea - When My Blue Moon Turns To Gold Again-1964-Johnny Sea
TTITLE6=Faron Young - High Noon (Do Not Forsaken Me)-1963-Faron Young
TTITLE7=Rex Allen - Don't Get Near To The Indians-1980-Rex Allen
TTITLE8=Dave Dudley - Six Days On he Road-1964-Dave Dudley
TTITLE9=Lester Flott - Foggy Mountain Breakdown-1963-Lester Flott
TTITLE10=Rusty Draper - Gambler's Guitar-1953-Rusty Draper
TTITLE11=Johnny Sea - Blue Moon Of Kentucky-1981-Johnny Sea
TTITLE12=Dolly Parton - It's Sure Gonna Hurt-1963-Dolly Parton
TTITLE13=Johhny Cash - I Walk The Line-1960-Johhny Cash
EXTD=
EXTT0=
EXTT1=
EXTT2=
EXTT3=
EXTT4=
EXTT5=
EXTT6=
EXTT7=
EXTT8=
EXTT9=
EXTT10=
EXTT11=
EXTT12=
EXTT13=
PLAYORDER=
